<svg xmlns="http://www.w3.org/2000/svg" width="101" height="36" viewBox="0 0 101 36" fill="none">
<path d="M14.1352 28.4649C7.96891 28.4649 2.95182 23.7782 2.95182 18.0191C2.95182 12.259 7.96891 7.57436 14.1352 7.57436H29.1842V5.79201C29.1842 5.11477 28.6384 4.56565 27.9654 4.56565H14.1895C6.36495 4.56565 0 10.6062 0 18.0359C0 25.4653 6.36495 31.5071 14.1895 31.5071H27.9654C28.6384 31.5071 29.1842 30.9568 29.1842 30.2801V28.4649H14.1352Z" fill="#FF0037"></path>
<path d="M14.1895 11.9208H27.9654C28.6385 11.9208 29.1842 11.3697 29.1842 10.6933V8.84457H14.1352C8.66508 8.84457 4.21362 12.9598 4.21362 18.0189C4.21362 23.077 8.66508 27.1946 14.1352 27.1946H29.1842V25.3791C29.1842 24.7021 28.6385 24.1527 27.9654 24.1527H14.1895C10.3964 24.1527 7.31068 21.4091 7.31068 18.0357C7.31068 14.6638 10.3964 11.9208 14.1895 11.9208Z" fill="#FF0037"></path>
<path d="M62.7286 4.55109H60.744V25.8086C60.744 26.0774 60.4524 26.2473 60.221 26.1114L36.8319 12.3818C36.5994 12.2442 36.3083 12.4141 36.3083 12.6841V31.5343L38.31 31.5386C38.7633 31.5386 39.1308 31.1673 39.1308 30.7135V17.2772L62.3099 31.1453C62.6226 31.3341 63.0378 31.2823 63.2976 31.0315C63.4608 30.8748 63.5498 30.6643 63.5498 30.4355V5.37849C63.5498 4.92232 63.1819 4.55109 62.7286 4.55109Z" fill="#FF0037"></path>
<path d="M35.0474 10.4757C35.0474 10.2048 35.3384 10.0358 35.571 10.1728L58.9601 23.9031C59.1923 24.0381 59.4836 23.8708 59.4836 23.5999V4.55092H57.4411C56.9877 4.55092 56.6197 4.92215 56.6197 5.37832V18.8272L33.5253 5.05285C33.3979 4.97678 33.253 4.93674 33.1069 4.93674C32.6538 4.93674 32.2852 5.30853 32.2852 5.7627V30.6549C32.2852 31.1915 32.649 31.527 33.2334 31.527L35.0474 31.5312V10.4757Z" fill="#FF0037"></path>
<path d="M92.8195 25.594C92.7644 25.5076 92.6692 25.4536 92.5646 25.4536H74.6567C74.5549 25.4536 74.4586 25.5076 74.4034 25.5934L70.7217 31.5139H73.4973C73.7517 31.5139 73.9839 31.3861 74.1203 31.169L76.2601 27.7422L90.8586 27.7293L93.0426 31.1721C93.1791 31.3861 93.4119 31.5139 93.6646 31.5139H96.5442L92.8195 25.594Z" fill="#FF0037"></path>
<path d="M100.683 30.3719L84.4302 4.91225C84.2949 4.69861 84.0624 4.57106 83.8114 4.57106C83.5644 4.57106 83.3359 4.69375 83.1998 4.89938L66.2014 30.3593C66.0499 30.5878 66.0349 30.8787 66.1631 31.1207C66.2913 31.3649 66.5408 31.5139 66.8131 31.5139H69.2203L83.4331 9.15362C83.5522 8.96944 83.8225 8.96944 83.9405 9.15734L98.0535 31.5139H100.063C100.333 31.5139 100.581 31.3661 100.71 31.1284C100.839 30.8902 100.829 30.6001 100.683 30.3719Z" fill="#FF0037"></path>
<path fill-rule="evenodd" clip-rule="evenodd" d="M86.5566 21.3655H80.8579C80.5793 21.3655 80.4079 21.0578 80.5551 20.8198L83.329 16.2907C83.4649 16.0662 83.7884 16.0625 83.9299 16.2833L86.8561 20.813C87.0091 21.0509 86.8399 21.3655 86.5566 21.3655ZM91.6296 23.7118L83.9327 11.5248C83.8148 11.3381 83.5442 11.3375 83.4248 11.5231L75.6111 23.7098C75.4821 23.9115 75.6253 24.176 75.8641 24.176H91.3758C91.6126 24.176 91.7573 23.9126 91.6296 23.7118Z" fill="#FF0037"></path>
</svg>